PathFileType	4	(X/Y/Z)	S:\OneDrive - The University of Tokyo\ìåëÂéˆã∆\ÉoÉCÉÅÉJ\ë™íË\hirabayashi_2\Trimmed\Trimmed_BarR1Hirabayashi1.trc
DataRate	CameraRate	NumFrames	NumMarkers	Units	OrigDataRate	OrigDataStartFrame	OrigNumFrames
200.00	200.00	       14	12	mm	200.00	1	       373
Frame#	Time	BarR0			BarR50			BarR100			BarR130			BarR180			BarR230			BarL0			BarL50			BarL100			BarL130			BarL180			BarL230			
		X1	Y1	Z1	X2	Y2	Z2	X3	Y3	Z3	X4	Y4	Z4	X5	Y5	Z5	X6	Y6	Z6	X7	Y7	Z7	X8	Y8	Z8	X9	Y9	Z9	X10	Y10	Z10	X11	Y11	Z11	X12	Y12	Z12	

1	0.000	-578.07745	2752.56787	1664.32190	-605.91846	2303.72119	1643.78088	-639.91614	1850.83765	1630.40491	-662.61224	1349.33679	1630.47839	-691.28186	903.52393	1643.87366	-714.94531	456.39645	1663.70447	-1114.24780	2808.08618	1664.47241	-1141.11707	2356.23096	1667.49817	-1171.48328	1905.89917	1668.36145	-1199.04346	1404.04187	1668.84949	-1226.86694	952.49780	1667.92053	-1244.89600	506.21313	1667.27283	
2	0.005	-578.09503	2752.56494	1664.31152	-605.90527	2303.71558	1643.80469	-639.90381	1850.84387	1630.41919	-662.61566	1349.35278	1630.47717	-691.22607	903.55719	1644.08960	-714.96857	456.39328	1663.70459	-1114.25891	2808.10571	1664.48499	-1141.15759	2356.22925	1667.47461	-1171.47449	1905.89392	1668.36304	-1199.01563	1404.03943	1668.84766	-1226.85803	952.50922	1667.91699	-1244.89087	506.22195	1667.27319	
3	0.010	-578.08734	2752.53955	1664.29382	-605.92102	2303.72607	1643.82739	-639.92969	1850.83179	1630.42224	-662.64551	1349.30994	1630.48193	-691.23041	903.56140	1644.09290	-714.97424	456.38797	1663.70142	-1114.23914	2808.04907	1664.45911	-1141.09998	2356.20752	1667.49268	-1171.46143	1905.87146	1668.35864	-1199.03955	1404.00647	1668.83862	-1226.83435	952.50574	1667.90857	-1244.87708	506.20197	1667.26563	
4	0.015	-578.09875	2752.54907	1664.33313	-605.93182	2303.70068	1643.78821	-639.92487	1850.84460	1630.38367	-662.64478	1349.32214	1630.46240	-691.25134	903.56372	1644.07776	-714.98132	456.37387	1663.69299	-1114.24329	2808.03955	1664.48071	-1141.07593	2356.21729	1667.49866	-1171.43860	1905.88367	1668.35132	-1199.01343	1403.99866	1668.81030	-1226.84863	952.49438	1667.89941	-1244.84692	506.18649	1667.27209	
5	0.020	-578.08820	2752.55273	1664.30408	-605.93396	2303.70288	1643.77148	-639.92255	1850.82410	1630.38904	-662.65674	1349.31543	1630.43079	-691.25305	903.56482	1644.04785	-714.99738	456.37500	1663.70361	-1114.24402	2807.99585	1664.47180	-1141.09473	2356.19141	1667.46631	-1171.45349	1905.88806	1668.35034	-1199.01892	1403.98486	1668.82764	-1226.81201	952.49518	1667.90515	-1244.84973	506.21274	1667.27063	
6	0.025	-578.10809	2752.53223	1664.31177	-605.93420	2303.71069	1643.77002	-639.93146	1850.84058	1630.36255	-662.65857	1349.32483	1630.41418	-691.24762	903.55872	1644.04956	-715.00623	456.37970	1663.70544	-1114.18945	2808.03125	1664.45190	-1141.08118	2356.21411	1667.47156	-1171.39966	1905.88635	1668.34900	-1199.01001	1403.99365	1668.81665	-1226.81042	952.47699	1667.89551	-1244.84924	506.17712	1667.27063	
7	0.030	-578.11816	2752.53979	1664.30750	-605.93018	2303.71851	1643.75293	-639.94495	1850.82043	1630.33154	-662.64331	1349.31702	1630.40417	-691.32867	903.51263	1643.83118	-715.00867	456.41312	1663.70264	-1114.24243	2808.01392	1664.46350	-1141.03699	2356.22583	1667.45935	-1171.39124	1905.85559	1668.35608	-1198.96216	1404.03247	1668.82141	-1226.80627	952.46698	1667.91943	-1244.84119	506.16312	1667.27600	
8	0.035	-578.08887	2752.54321	1664.30725	-605.91425	2303.71777	1643.75842	-639.92981	1850.84705	1630.34326	-662.63208	1349.32324	1630.41138	-691.22717	903.56952	1644.03735	-714.98297	456.39462	1663.69275	-1114.16125	2808.03613	1664.49072	-1141.06702	2356.20801	1667.44263	-1171.40039	1905.88062	1668.34583	-1198.95386	1404.03735	1668.82617	-1226.81519	952.47815	1667.90540	-1244.86340	506.19534	1667.27051	
9	0.040	-578.08020	2752.55762	1664.30957	-605.90833	2303.70972	1643.78467	-639.92010	1850.83167	1630.35938	-662.63287	1349.32104	1630.40771	-691.23846	903.58240	1644.03760	-714.98956	456.40018	1663.70178	-1114.19055	2808.03638	1664.48816	-1141.05396	2356.20093	1667.47839	-1171.40552	1905.87012	1668.35181	-1199.01099	1403.98267	1668.81750	-1226.81897	952.50244	1667.89941	-1244.85876	506.20453	1667.27405	
10	0.045	-578.10272	2752.56909	1664.31018	-605.88812	2303.71777	1643.79260	-639.87476	1850.84741	1630.38293	-662.61371	1349.32874	1630.41858	-691.21552	903.58539	1644.06311	-714.98431	456.39539	1663.70496	-1114.18726	2808.05322	1664.49011	-1141.08826	2356.24438	1667.46729	-1171.40918	1905.87842	1668.34155	-1199.00635	1404.01221	1668.80725	-1226.81555	952.47638	1667.90112	-1244.87061	506.23300	1667.26404	
11	0.050	-578.06940	2752.55273	1664.30457	-605.88770	2303.71582	1643.81140	-639.87787	1850.83813	1630.39087	-662.57092	1349.31104	1630.45618	-691.25446	903.55597	1643.86316	-714.95514	456.39142	1663.71240	-1114.16418	2808.05933	1664.47278	-1141.06079	2356.24634	1667.47693	-1171.42590	1905.91895	1668.35046	-1198.98962	1404.04688	1668.84912	-1226.84778	952.53717	1667.91614	-1244.87903	506.21899	1667.26367	
12	0.055	-578.04486	2752.57056	1664.30847	-605.89551	2303.72095	1643.83435	-639.86127	1850.83740	1630.43408	-662.56268	1349.32874	1630.49915	-691.18640	903.59406	1644.09790	-714.94049	456.41003	1663.70203	-1114.23083	2808.06543	1664.48120	-1141.08813	2356.25317	1667.48962	-1171.44788	1905.90857	1668.35791	-1199.00586	1404.05115	1668.84473	-1226.86218	952.53271	1667.91650	-1244.88037	506.23288	1667.27100	
13	0.060	-578.05511	2752.56470	1664.31152	-605.88434	2303.72021	1643.84094	-639.84656	1850.84241	1630.47424	-662.55255	1349.33557	1630.52222	-691.16296	903.54266	1644.11829	-714.93622	456.37363	1663.71960	-1114.27820	2808.07495	1664.47144	-1141.11060	2356.24023	1667.49414	-1171.49182	1905.92639	1668.36902	-1199.03333	1404.06555	1668.85559	-1226.86572	952.51501	1667.92468	-1244.91455	506.26550	1667.26941	
14	0.065	-578.03839	2752.58105	1664.31909	-605.88141	2303.73511	1643.86621	-639.83099	1850.82898	1630.51489	-662.54144	1349.31958	1630.56958	-691.15839	903.56378	1644.13257	-714.93024	456.37106	1663.70593	-1114.24072	2808.06494	1664.47034	-1141.11426	2356.23462	1667.48376	-1171.49683	1905.88696	1668.36890	-1199.03040	1404.06946	1668.84351	-1226.87402	952.51953	1667.93579	-1244.90820	506.22028	1667.28369	
